<svg width="116" height="54" viewBox="0 0 116 54" fill="none" xmlns="http://www.w3.org/2000/svg">
<path d="M46.944 12.344C46.8587 13.1547 46.7947 13.944 46.752 14.712C46.7307 15.4587 46.72 16.0347 46.72 16.44C46.72 16.952 46.7307 17.432 46.752 17.88C46.7733 18.328 46.7947 18.7227 46.816 19.064H46.08C45.9307 17.5707 45.728 16.3973 45.472 15.544C45.216 14.6693 44.768 14.04 44.128 13.656C43.488 13.272 42.496 13.08 41.152 13.08H39.424V31.288C39.424 32.1413 39.4987 32.7813 39.648 33.208C39.8187 33.6347 40.1387 33.9227 40.608 34.072C41.0773 34.2213 41.76 34.3173 42.656 34.36V35C42.1013 34.9573 41.3973 34.936 40.544 34.936C39.6907 34.9147 38.8267 34.904 37.952 34.904C36.992 34.904 36.0853 34.9147 35.232 34.936C34.4 34.936 33.728 34.9573 33.216 35V34.36C34.112 34.3173 34.7947 34.2213 35.264 34.072C35.7333 33.9227 36.0427 33.6347 36.192 33.208C36.3627 32.7813 36.448 32.1413 36.448 31.288V13.08H34.72C33.3973 13.08 32.4053 13.272 31.744 13.656C31.104 14.04 30.656 14.6693 30.4 15.544C30.144 16.3973 29.9413 17.5707 29.792 19.064H29.056C29.0987 18.7227 29.12 18.328 29.12 17.88C29.1413 17.432 29.152 16.952 29.152 16.44C29.152 16.0347 29.1307 15.4587 29.088 14.712C29.0667 13.944 29.0133 13.1547 28.928 12.344C29.824 12.3653 30.7947 12.3867 31.84 12.408C32.9067 12.4293 33.9733 12.44 35.04 12.44C36.1067 12.44 37.0773 12.44 37.952 12.44C38.8267 12.44 39.7867 12.44 40.832 12.44C41.8987 12.44 42.9653 12.4293 44.032 12.408C45.0987 12.3867 46.0693 12.3653 46.944 12.344ZM61.081 18.168V31.544C61.081 32.504 61.2517 33.2187 61.593 33.688C61.9557 34.136 62.5957 34.36 63.513 34.36V35.032C62.8517 34.968 62.1903 34.936 61.529 34.936C60.9103 34.936 60.313 34.968 59.737 35.032C59.1823 35.096 58.6703 35.2133 58.201 35.384V31.608C57.6677 32.9947 56.9103 33.9867 55.929 34.584C54.969 35.16 53.977 35.448 52.953 35.448C52.2063 35.448 51.5557 35.3413 51.001 35.128C50.4463 34.9147 49.9877 34.616 49.625 34.232C49.2197 33.8053 48.9423 33.2507 48.793 32.568C48.6437 31.8853 48.569 31.0427 48.569 30.04V22.008C48.569 21.048 48.3983 20.344 48.057 19.896C47.7157 19.4267 47.0757 19.192 46.137 19.192V18.52C46.8197 18.584 47.481 18.616 48.121 18.616C48.7397 18.616 49.3263 18.584 49.881 18.52C50.457 18.4347 50.9797 18.3173 51.449 18.168V30.744C51.449 31.4053 51.4917 32.0133 51.577 32.568C51.6623 33.1227 51.8757 33.5707 52.217 33.912C52.5583 34.2533 53.113 34.424 53.881 34.424C54.713 34.424 55.449 34.168 56.089 33.656C56.7503 33.144 57.2623 32.4507 57.625 31.576C58.009 30.7013 58.201 29.72 58.201 28.632V22.008C58.201 21.048 58.0303 20.344 57.689 19.896C57.3477 19.4267 56.7077 19.192 55.769 19.192V18.52C56.4517 18.584 57.113 18.616 57.753 18.616C58.3717 18.616 58.9583 18.584 59.513 18.52C60.089 18.4347 60.6117 18.3173 61.081 18.168ZM70.2348 9.912V32.024C70.2348 32.92 70.4161 33.528 70.7788 33.848C71.1628 34.168 71.7921 34.328 72.6667 34.328V35C72.3041 34.9787 71.7494 34.9573 71.0028 34.936C70.2774 34.8933 69.5414 34.872 68.7948 34.872C68.0694 34.872 67.3334 34.8933 66.5868 34.936C65.8401 34.9573 65.2854 34.9787 64.9228 35V34.328C65.7974 34.328 66.4161 34.168 66.7788 33.848C67.1628 33.528 67.3548 32.92 67.3548 32.024V13.752C67.3548 12.792 67.1841 12.088 66.8428 11.64C66.5014 11.1707 65.8614 10.936 64.9228 10.936V10.264C65.6054 10.328 66.2668 10.36 66.9068 10.36C67.5254 10.36 68.1121 10.328 68.6668 10.264C69.2428 10.1787 69.7654 10.0613 70.2348 9.912ZM77.951 10.52C78.5057 10.52 78.9857 10.7227 79.391 11.128C79.7963 11.5333 79.999 12.0133 79.999 12.568C79.999 13.1227 79.7963 13.6027 79.391 14.008C78.9857 14.4133 78.5057 14.616 77.951 14.616C77.3963 14.616 76.9163 14.4133 76.511 14.008C76.1057 13.6027 75.903 13.1227 75.903 12.568C75.903 12.0133 76.1057 11.5333 76.511 11.128C76.9163 10.7227 77.3963 10.52 77.951 10.52ZM79.615 18.168V32.024C79.615 32.92 79.7963 33.528 80.159 33.848C80.543 34.168 81.1723 34.328 82.047 34.328V35C81.6843 34.9787 81.1297 34.9573 80.383 34.936C79.6577 34.8933 78.9217 34.872 78.175 34.872C77.4497 34.872 76.7137 34.8933 75.967 34.936C75.2203 34.9573 74.6657 34.9787 74.303 35V34.328C75.1777 34.328 75.7963 34.168 76.159 33.848C76.543 33.528 76.735 32.92 76.735 32.024V22.008C76.735 21.048 76.5643 20.344 76.223 19.896C75.8817 19.4267 75.2417 19.192 74.303 19.192V18.52C74.9857 18.584 75.647 18.616 76.287 18.616C76.9057 18.616 77.4923 18.584 78.047 18.52C78.623 18.4347 79.1457 18.3173 79.615 18.168ZM88.766 18.168V37.816C88.766 38.7333 89.0327 39.3413 89.566 39.64C90.1207 39.96 90.878 40.12 91.838 40.12V40.792C91.3687 40.7707 90.718 40.7387 89.886 40.696C89.054 40.6747 88.1687 40.664 87.23 40.664C86.5687 40.664 85.9073 40.6747 85.246 40.696C84.606 40.7387 84.1153 40.7707 83.774 40.792V40.12C84.542 40.12 85.086 39.9813 85.406 39.704C85.726 39.4267 85.886 38.904 85.886 38.136V22.008C85.886 21.048 85.7153 20.344 85.374 19.896C85.0327 19.4267 84.3927 19.192 83.454 19.192V18.52C84.1367 18.584 84.798 18.616 85.438 18.616C86.0567 18.616 86.6433 18.584 87.198 18.52C87.774 18.4347 88.2967 18.3173 88.766 18.168ZM93.886 18.072C95.0167 18.072 96.03 18.3813 96.926 19C97.822 19.5973 98.526 20.4827 99.038 21.656C99.5713 22.8293 99.838 24.28 99.838 26.008C99.838 27.16 99.6993 28.3013 99.422 29.432C99.1447 30.5413 98.7073 31.5547 98.11 32.472C97.534 33.368 96.7767 34.0933 95.838 34.648C94.9207 35.1813 93.8113 35.448 92.51 35.448C91.5073 35.448 90.6327 35.2133 89.886 34.744C89.1607 34.2747 88.67 33.7093 88.414 33.048L88.734 32.6C89.0327 33.1973 89.4593 33.6987 90.014 34.104C90.59 34.5093 91.3047 34.712 92.158 34.712C93.3527 34.712 94.2807 34.3387 94.942 33.592C95.6033 32.8453 96.062 31.8533 96.318 30.616C96.5953 29.3573 96.734 27.9707 96.734 26.456C96.734 24.7493 96.5953 23.352 96.318 22.264C96.0407 21.176 95.6247 20.3653 95.07 19.832C94.5153 19.2987 93.8327 19.032 93.022 19.032C91.9767 19.032 91.0273 19.4693 90.174 20.344C89.3207 21.1973 88.7767 22.4987 88.542 24.248L88.158 23.8C88.3927 21.9867 89.0327 20.5787 90.078 19.576C91.1447 18.5733 92.414 18.072 93.886 18.072ZM108 18.072C108.853 18.072 109.578 18.2107 110.176 18.488C110.773 18.7653 111.21 19.0213 111.488 19.256C112.192 19.832 112.618 19.448 112.768 18.104H113.504C113.461 18.7013 113.429 19.416 113.408 20.248C113.386 21.0587 113.376 22.1573 113.376 23.544H112.64C112.512 22.7547 112.288 21.9867 111.968 21.24C111.669 20.4933 111.221 19.8853 110.624 19.416C110.026 18.9253 109.248 18.68 108.288 18.68C107.541 18.68 106.912 18.8933 106.4 19.32C105.909 19.7253 105.664 20.3333 105.664 21.144C105.664 21.784 105.856 22.3387 106.24 22.808C106.624 23.256 107.125 23.6827 107.744 24.088C108.362 24.472 109.034 24.8987 109.76 25.368C110.57 25.88 111.306 26.4027 111.968 26.936C112.629 27.4693 113.152 28.056 113.536 28.696C113.941 29.336 114.144 30.0933 114.144 30.968C114.144 31.9493 113.888 32.7707 113.376 33.432C112.864 34.0933 112.192 34.5947 111.36 34.936C110.549 35.2773 109.653 35.448 108.672 35.448C108.202 35.448 107.754 35.4053 107.328 35.32C106.922 35.256 106.528 35.1493 106.144 35C105.93 34.8933 105.706 34.7653 105.472 34.616C105.258 34.4667 105.045 34.3067 104.832 34.136C104.618 33.9653 104.426 33.976 104.256 34.168C104.085 34.3387 103.957 34.6907 103.872 35.224H103.136C103.178 34.5413 103.21 33.7093 103.232 32.728C103.253 31.7467 103.264 30.4453 103.264 28.824H104C104.149 30.0187 104.362 31.064 104.64 31.96C104.917 32.856 105.354 33.56 105.952 34.072C106.549 34.5627 107.381 34.808 108.448 34.808C108.874 34.808 109.301 34.712 109.728 34.52C110.176 34.328 110.549 34.008 110.848 33.56C111.146 33.112 111.296 32.5147 111.296 31.768C111.296 30.8293 110.954 30.0613 110.272 29.464C109.589 28.8667 108.725 28.2373 107.68 27.576C106.912 27.0853 106.186 26.5947 105.504 26.104C104.842 25.6133 104.298 25.0587 103.872 24.44C103.466 23.8213 103.264 23.0747 103.264 22.2C103.264 21.24 103.477 20.4613 103.904 19.864C104.352 19.2453 104.938 18.7973 105.664 18.52C106.389 18.2213 107.168 18.072 108 18.072Z" fill="#313053"/>
<path d="M33.8807 52V44.7273H38.2415V45.5085H34.7614V47.9659H37.9148V48.7472H34.7614V52H33.8807ZM39.7498 52V44.7273H40.6305V51.2188H44.0112V52H39.7498ZM51.228 48.3636C51.228 49.1307 51.0895 49.7936 50.8125 50.3523C50.5355 50.911 50.1555 51.3419 49.6726 51.6449C49.1896 51.9479 48.638 52.0994 48.0178 52.0994C47.3975 52.0994 46.8459 51.9479 46.3629 51.6449C45.88 51.3419 45.5 50.911 45.223 50.3523C44.946 49.7936 44.8075 49.1307 44.8075 48.3636C44.8075 47.5966 44.946 46.9337 45.223 46.375C45.5 45.8163 45.88 45.3854 46.3629 45.0824C46.8459 44.7794 47.3975 44.6278 48.0178 44.6278C48.638 44.6278 49.1896 44.7794 49.6726 45.0824C50.1555 45.3854 50.5355 45.8163 50.8125 46.375C51.0895 46.9337 51.228 47.5966 51.228 48.3636ZM50.3757 48.3636C50.3757 47.7339 50.2704 47.2024 50.0597 46.7692C49.8513 46.3359 49.5684 46.008 49.2109 45.7855C48.8558 45.563 48.4581 45.4517 48.0178 45.4517C47.5774 45.4517 47.1785 45.563 46.821 45.7855C46.4659 46.008 46.183 46.3359 45.9723 46.7692C45.764 47.2024 45.6598 47.7339 45.6598 48.3636C45.6598 48.9934 45.764 49.5249 45.9723 49.9581C46.183 50.3913 46.4659 50.7192 46.821 50.9418C47.1785 51.1643 47.5774 51.2756 48.0178 51.2756C48.4581 51.2756 48.8558 51.1643 49.2109 50.9418C49.5684 50.7192 49.8513 50.3913 50.0597 49.9581C50.2704 49.5249 50.3757 48.9934 50.3757 48.3636ZM52.7088 52V44.7273H55.1662C55.7344 44.7273 56.2008 44.8243 56.5653 45.0185C56.9299 45.2102 57.1998 45.4742 57.375 45.8104C57.5502 46.1465 57.6378 46.5289 57.6378 46.9574C57.6378 47.3859 57.5502 47.7659 57.375 48.0973C57.1998 48.4287 56.9311 48.6892 56.5689 48.8786C56.2067 49.0656 55.7438 49.1591 55.1804 49.1591H53.1918V48.3636H55.152C55.5402 48.3636 55.8527 48.3068 56.0895 48.1932C56.3286 48.0795 56.5014 47.9186 56.608 47.7102C56.7169 47.4995 56.7713 47.2486 56.7713 46.9574C56.7713 46.6662 56.7169 46.4117 56.608 46.1939C56.4991 45.9761 56.325 45.808 56.0859 45.6896C55.8468 45.5689 55.5308 45.5085 55.1378 45.5085H53.5895V52H52.7088ZM56.1321 48.733L57.9219 52H56.8991L55.1378 48.733H56.1321ZM59.4036 52H58.4803L61.1507 44.7273H62.0598L64.7303 52H63.807L61.6337 45.8778H61.5769L59.4036 52ZM59.7445 49.1591H63.4661V49.9403H59.7445V49.1591ZM65.8631 52V44.7273H66.7438V51.2188H70.1245V52H65.8631ZM78.2779 46.5455C78.2353 46.1856 78.0624 45.9062 77.7594 45.7074C77.4564 45.5085 77.0847 45.4091 76.6444 45.4091C76.3224 45.4091 76.0407 45.4612 75.7992 45.5653C75.5601 45.6695 75.373 45.8127 75.2381 45.995C75.1055 46.1773 75.0392 46.3845 75.0392 46.6165C75.0392 46.8106 75.0854 46.9775 75.1777 47.1172C75.2724 47.2545 75.3932 47.3693 75.54 47.4616C75.6867 47.5516 75.8406 47.6262 76.0016 47.6854C76.1626 47.7422 76.3105 47.7884 76.4455 47.8239L77.1841 48.0227C77.3735 48.0724 77.5842 48.1411 77.8162 48.2287C78.0506 48.3163 78.2743 48.4358 78.4874 48.5874C78.7028 48.7365 78.8804 48.9283 79.0201 49.1626C79.1597 49.397 79.2296 49.6847 79.2296 50.0256C79.2296 50.4186 79.1266 50.7737 78.9206 51.0909C78.717 51.4081 78.4187 51.6603 78.0257 51.8473C77.6351 52.0343 77.1605 52.1278 76.6017 52.1278C76.0809 52.1278 75.6299 52.0438 75.2488 51.8757C74.87 51.7076 74.5717 51.4732 74.3539 51.1726C74.1384 50.8719 74.0165 50.5227 73.9881 50.125H74.8972C74.9209 50.3996 75.0132 50.6269 75.1742 50.8068C75.3375 50.9844 75.5435 51.117 75.7921 51.2045C76.043 51.2898 76.3129 51.3324 76.6017 51.3324C76.9379 51.3324 77.2398 51.2779 77.5073 51.169C77.7748 51.0578 77.9867 50.9039 78.1429 50.7074C78.2992 50.5085 78.3773 50.2765 78.3773 50.0114C78.3773 49.7699 78.3098 49.5734 78.1749 49.4219C78.04 49.2704 77.8624 49.1473 77.6422 49.0526C77.4221 48.9579 77.1841 48.875 76.9284 48.804L76.0336 48.5483C75.4654 48.3849 75.0156 48.1518 74.6841 47.8487C74.3527 47.5457 74.187 47.1491 74.187 46.6591C74.187 46.2519 74.2971 45.8968 74.5172 45.5938C74.7398 45.2884 75.0381 45.0516 75.4121 44.8835C75.7885 44.7131 76.2087 44.6278 76.6728 44.6278C77.1415 44.6278 77.5582 44.7119 77.9228 44.88C78.2873 45.0457 78.5762 45.273 78.7892 45.5618C79.0047 45.8506 79.1183 46.1785 79.1301 46.5455H78.2779ZM80.2798 45.5085V44.7273H85.7344V45.5085H83.4474V52H82.5668V45.5085H80.2798ZM91.8663 44.7273H92.747V49.5426C92.747 50.0398 92.6298 50.4837 92.3954 50.8743C92.1634 51.2625 91.8355 51.5691 91.4118 51.794C90.988 52.0166 90.4908 52.1278 89.9203 52.1278C89.3497 52.1278 88.8526 52.0166 88.4288 51.794C88.005 51.5691 87.676 51.2625 87.4416 50.8743C87.2096 50.4837 87.0936 50.0398 87.0936 49.5426V44.7273H87.9743V49.4716C87.9743 49.8267 88.0524 50.1428 88.2086 50.4197C88.3649 50.6944 88.5874 50.911 88.8762 51.0696C89.1674 51.2259 89.5154 51.304 89.9203 51.304C90.3251 51.304 90.6731 51.2259 90.9643 51.0696C91.2555 50.911 91.478 50.6944 91.6319 50.4197C91.7882 50.1428 91.8663 49.8267 91.8663 49.4716V44.7273ZM96.75 52H94.5057V44.7273H96.8494C97.5549 44.7273 98.1586 44.8729 98.6605 45.1641C99.1624 45.4529 99.5471 45.8684 99.8146 46.4105C100.082 46.9503 100.216 47.5966 100.216 48.3494C100.216 49.107 100.081 49.7592 99.8111 50.3061C99.5412 50.8506 99.1482 51.2696 98.6321 51.5632C98.116 51.8544 97.4886 52 96.75 52ZM95.3864 51.2188H96.6932C97.2945 51.2188 97.7929 51.1027 98.1882 50.8707C98.5836 50.6387 98.8783 50.3085 99.0724 49.88C99.2666 49.4515 99.3636 48.9413 99.3636 48.3494C99.3636 47.7623 99.2678 47.2569 99.076 46.8331C98.8842 46.407 98.5978 46.0803 98.2166 45.853C97.8355 45.6233 97.3608 45.5085 96.7926 45.5085H95.3864V51.2188ZM102.574 44.7273V52H101.693V44.7273H102.574ZM110.476 48.3636C110.476 49.1307 110.338 49.7936 110.061 50.3523C109.784 50.911 109.404 51.3419 108.921 51.6449C108.438 51.9479 107.886 52.0994 107.266 52.0994C106.646 52.0994 106.094 51.9479 105.611 51.6449C105.128 51.3419 104.748 50.911 104.471 50.3523C104.194 49.7936 104.056 49.1307 104.056 48.3636C104.056 47.5966 104.194 46.9337 104.471 46.375C104.748 45.8163 105.128 45.3854 105.611 45.0824C106.094 44.7794 106.646 44.6278 107.266 44.6278C107.886 44.6278 108.438 44.7794 108.921 45.0824C109.404 45.3854 109.784 45.8163 110.061 46.375C110.338 46.9337 110.476 47.5966 110.476 48.3636ZM109.624 48.3636C109.624 47.7339 109.518 47.2024 109.308 46.7692C109.099 46.3359 108.816 46.008 108.459 45.7855C108.104 45.563 107.706 45.4517 107.266 45.4517C106.825 45.4517 106.427 45.563 106.069 45.7855C105.714 46.008 105.431 46.3359 105.22 46.7692C105.012 47.2024 104.908 47.7339 104.908 48.3636C104.908 48.9934 105.012 49.5249 105.22 49.9581C105.431 50.3913 105.714 50.7192 106.069 50.9418C106.427 51.1643 106.825 51.2756 107.266 51.2756C107.706 51.2756 108.104 51.1643 108.459 50.9418C108.816 50.7192 109.099 50.3913 109.308 49.9581C109.518 49.5249 109.624 48.9934 109.624 48.3636Z" fill="#817E8F"/>
<path d="M16.33 8.00009C15.1581 8.65289 14.2334 9.62624 13.6729 10.7837L12.6572 8.18822C12.039 12.8296 11.7988 17.1321 14.8514 18.494C14.1154 21.9686 13.6729 25.4451 13.433 28.9173L12.023 25.3105C11.8277 23.9266 11.3635 22.423 10.8338 20.8896L9.64234 27.8619C9.14769 25.7485 8.51123 23.6595 7.69019 21.6096C9.36738 17.5445 8.79648 14.9718 5.55818 14.1523C5.52287 14.4383 5.51978 15.0312 5.51978 15.0312L4.15691 14.2082L3.99619 16.0746L3.35548 15.6367C2.98295 19.6112 3.34725 22.6863 6.5525 22.418C6.8036 23.043 7.03947 23.6792 7.25971 24.3256L0 21.3216C2.14366 25.5776 4.40026 29.1061 7.71604 25.7513C8.46927 28.2586 8.98353 30.8254 9.34455 33.4381L4.90266 29.6579C5.78528 33.0505 6.83651 35.987 9.49238 34.5902C9.5772 35.2906 9.6505 35.9942 9.71729 36.7008H11.0116C10.8225 34.6361 10.5636 32.579 10.1952 30.5397C10.758 30.1546 11.1792 29.707 11.4809 29.2052C11.7341 30.2584 12.277 31.0529 13.2937 31.4245C13.2185 33.1844 13.1904 34.9437 13.1951 36.7006H14.4765C14.4755 36.3178 14.4763 35.9368 14.4786 35.5543C17.3508 34.9134 17.1857 31.5587 16.7007 27.9176L14.5087 33.526C14.5612 31.2968 14.6796 29.0744 14.8922 26.8565C18.4931 27.3308 19.0848 23.2084 19.3578 18.5997L15.1195 24.793C15.3575 22.8588 15.6722 20.928 16.0795 19.0022C18.6538 19.4345 21.3513 15.638 21.2414 12.4178L20.3885 13.144C20.3163 12.019 19.9309 10.7445 19.2143 9.31659C18.6976 9.8202 18.2541 10.4992 17.8537 11.2392L17.5728 9.53726L16.7714 10.9101C16.7494 9.92526 16.6226 8.95652 16.33 8.00009ZM28.8246 17.3358C28.4821 17.3365 28.0717 17.4167 27.5732 17.6091C26.6588 17.9622 25.6862 18.7614 26.0389 21.1482C24.3598 22.383 22.9253 24.0756 21.7705 26.1481H21.7575C21.7595 26.1523 21.7621 26.1556 21.764 26.1598C21.7091 26.2586 21.6548 26.3564 21.6011 26.4567L23.1825 19.2756C20.0326 22.2614 17.4269 25.4052 20.0669 30.0692C19.4025 32.0724 18.9331 34.2964 18.6741 36.7006H21.2819C22.9639 36.0068 23.3115 33.2734 23.4889 30.2809L20.187 35.1046C20.6509 32.231 21.4503 29.7209 22.5462 27.6295C25.0645 31.5937 27.8383 29.0308 30.6395 25.7661L23.4676 26.0746C24.3655 24.731 25.4116 23.6104 26.5916 22.7354C27.3725 24.1219 28.5391 24.0685 29.3752 23.4702C31.1126 22.2271 30.5712 20.8515 32 19.1522C30.5675 19.6473 30.6731 17.3315 28.8246 17.3358ZM8.48305 38.4586L10.268 53H20.114L21.9248 38.4586H8.48305Z" fill="#D0A5C0"/>
</svg>
